<svg width="437" height="62" viewBox="0 0 437 62" fill="none" xmlns="http://www.w3.org/2000/svg">
<path d="M150.049 3.42717C150.679 1.95492 152.126 1 153.727 1H431.221C434.016 1 435.949 3.79316 434.964 6.40888L415.019 59.4089C414.432 60.9678 412.941 62 411.275 62H131.061C128.191 62 126.255 59.0663 127.383 56.4272L150.049 3.42717Z" fill="#7257EF"/>
<path d="M43.707 10.198V46H34.986V24.529L26.979 46H19.941L11.883 24.478V46H3.162V10.198H13.464L23.511 34.984L33.456 10.198H43.707ZM79.0484 17.542L61.1984 59.515H51.8144L58.3424 45.031L46.7654 17.542H56.5064L63.0854 35.341L69.6134 17.542H79.0484ZM93.779 46.408C91.297 46.408 89.087 45.983 87.149 45.133C85.211 44.283 83.681 43.127 82.559 41.665C81.437 40.169 80.808 38.503 80.672 36.667H89.291C89.393 37.653 89.852 38.452 90.668 39.064C91.484 39.676 92.487 39.982 93.677 39.982C94.765 39.982 95.598 39.778 96.176 39.37C96.788 38.928 97.094 38.367 97.094 37.687C97.094 36.871 96.669 36.276 95.819 35.902C94.969 35.494 93.592 35.052 91.688 34.576C89.648 34.1 87.948 33.607 86.588 33.097C85.228 32.553 84.055 31.72 83.069 30.598C82.083 29.442 81.59 27.895 81.59 25.957C81.59 24.325 82.032 22.846 82.916 21.52C83.834 20.16 85.16 19.089 86.894 18.307C88.662 17.525 90.753 17.134 93.167 17.134C96.737 17.134 99.542 18.018 101.582 19.786C103.656 21.554 104.846 23.9 105.152 26.824H97.094C96.958 25.838 96.516 25.056 95.768 24.478C95.054 23.9 94.102 23.611 92.912 23.611C91.892 23.611 91.11 23.815 90.566 24.223C90.022 24.597 89.75 25.124 89.75 25.804C89.75 26.62 90.175 27.232 91.025 27.64C91.909 28.048 93.269 28.456 95.105 28.864C97.213 29.408 98.93 29.952 100.256 30.496C101.582 31.006 102.738 31.856 103.724 33.046C104.744 34.202 105.271 35.766 105.305 37.738C105.305 39.404 104.829 40.9 103.877 42.226C102.959 43.518 101.616 44.538 99.848 45.286C98.114 46.034 96.091 46.408 93.779 46.408ZM126.502 38.605V46H122.065C118.903 46 116.438 45.235 114.67 43.705C112.902 42.141 112.018 39.608 112.018 36.106V24.784H108.55V17.542H112.018V10.606H120.739V17.542H126.451V24.784H120.739V36.208C120.739 37.058 120.943 37.67 121.351 38.044C121.759 38.418 122.439 38.605 123.391 38.605H126.502ZM135.745 14.584C134.215 14.584 132.957 14.142 131.971 13.258C131.019 12.34 130.543 11.218 130.543 9.892C130.543 8.532 131.019 7.41 131.971 6.526C132.957 5.608 134.215 5.149 135.745 5.149C137.241 5.149 138.465 5.608 139.417 6.526C140.403 7.41 140.896 8.532 140.896 9.892C140.896 11.218 140.403 12.34 139.417 13.258C138.465 14.142 137.241 14.584 135.745 14.584ZM140.08 17.542V46H131.359V17.542H140.08ZM144.666 31.771C144.666 28.813 145.261 26.229 146.451 24.019C147.675 21.809 149.358 20.109 151.5 18.919C153.676 17.729 156.158 17.134 158.946 17.134C162.516 17.134 165.491 18.069 167.871 19.939C170.285 21.809 171.866 24.444 172.614 27.844H163.332C162.55 25.668 161.037 24.58 158.793 24.58C157.195 24.58 155.92 25.209 154.968 26.467C154.016 27.691 153.54 29.459 153.54 31.771C153.54 34.083 154.016 35.868 154.968 37.126C155.92 38.35 157.195 38.962 158.793 38.962C161.037 38.962 162.55 37.874 163.332 35.698H172.614C171.866 39.03 170.285 41.648 167.871 43.552C165.457 45.456 162.482 46.408 158.946 46.408C156.158 46.408 153.676 45.813 151.5 44.623C149.358 43.433 147.675 41.733 146.451 39.523C145.261 37.313 144.666 34.729 144.666 31.771ZM228.632 10.198V46H219.911V24.529L211.904 46H204.866L196.808 24.478V46H188.087V10.198H198.389L208.436 34.984L218.381 10.198H228.632ZM263.004 17.542V46H254.283V42.124C253.399 43.382 252.192 44.402 250.662 45.184C249.166 45.932 247.5 46.306 245.664 46.306C243.488 46.306 241.567 45.83 239.901 44.878C238.235 43.892 236.943 42.481 236.025 40.645C235.107 38.809 234.648 36.65 234.648 34.168V17.542H243.318V32.995C243.318 34.899 243.811 36.378 244.797 37.432C245.783 38.486 247.109 39.013 248.775 39.013C250.475 39.013 251.818 38.486 252.804 37.432C253.79 36.378 254.283 34.899 254.283 32.995V17.542H263.004ZM280.845 46.408C278.363 46.408 276.153 45.983 274.215 45.133C272.277 44.283 270.747 43.127 269.625 41.665C268.503 40.169 267.874 38.503 267.738 36.667H276.357C276.459 37.653 276.918 38.452 277.734 39.064C278.55 39.676 279.553 39.982 280.743 39.982C281.831 39.982 282.664 39.778 283.242 39.37C283.854 38.928 284.16 38.367 284.16 37.687C284.16 36.871 283.735 36.276 282.885 35.902C282.035 35.494 280.658 35.052 278.754 34.576C276.714 34.1 275.014 33.607 273.654 33.097C272.294 32.553 271.121 31.72 270.135 30.598C269.149 29.442 268.656 27.895 268.656 25.957C268.656 24.325 269.098 22.846 269.982 21.52C270.9 20.16 272.226 19.089 273.96 18.307C275.728 17.525 277.819 17.134 280.233 17.134C283.803 17.134 286.608 18.018 288.648 19.786C290.722 21.554 291.912 23.9 292.218 26.824H284.16C284.024 25.838 283.582 25.056 282.834 24.478C282.12 23.9 281.168 23.611 279.978 23.611C278.958 23.611 278.176 23.815 277.632 24.223C277.088 24.597 276.816 25.124 276.816 25.804C276.816 26.62 277.241 27.232 278.091 27.64C278.975 28.048 280.335 28.456 282.171 28.864C284.279 29.408 285.996 29.952 287.322 30.496C288.648 31.006 289.804 31.856 290.79 33.046C291.81 34.202 292.337 35.766 292.371 37.738C292.371 39.404 291.895 40.9 290.943 42.226C290.025 43.518 288.682 44.538 286.914 45.286C285.18 46.034 283.157 46.408 280.845 46.408ZM315.2 17.236C318.464 17.236 321.082 18.324 323.054 20.5C325.026 22.642 326.012 25.6 326.012 29.374V46H317.342V30.547C317.342 28.643 316.849 27.164 315.863 26.11C314.877 25.056 313.551 24.529 311.885 24.529C310.219 24.529 308.893 25.056 307.907 26.11C306.921 27.164 306.428 28.643 306.428 30.547V46H297.707V8.26H306.428V21.367C307.312 20.109 308.519 19.106 310.049 18.358C311.579 17.61 313.296 17.236 315.2 17.236ZM336.458 14.584C334.928 14.584 333.67 14.142 332.684 13.258C331.732 12.34 331.256 11.218 331.256 9.892C331.256 8.532 331.732 7.41 332.684 6.526C333.67 5.608 334.928 5.149 336.458 5.149C337.954 5.149 339.178 5.608 340.13 6.526C341.116 7.41 341.609 8.532 341.609 9.892C341.609 11.218 341.116 12.34 340.13 13.258C339.178 14.142 337.954 14.584 336.458 14.584ZM340.793 17.542V46H332.072V17.542H340.793ZM373.939 31.312C373.939 32.128 373.888 32.978 373.786 33.862H354.049C354.185 35.63 354.746 36.99 355.732 37.942C356.752 38.86 357.993 39.319 359.455 39.319C361.631 39.319 363.144 38.401 363.994 36.565H373.276C372.8 38.435 371.933 40.118 370.675 41.614C369.451 43.11 367.904 44.283 366.034 45.133C364.164 45.983 362.073 46.408 359.761 46.408C356.973 46.408 354.491 45.813 352.315 44.623C350.139 43.433 348.439 41.733 347.215 39.523C345.991 37.313 345.379 34.729 345.379 31.771C345.379 28.813 345.974 26.229 347.164 24.019C348.388 21.809 350.088 20.109 352.264 18.919C354.44 17.729 356.939 17.134 359.761 17.134C362.515 17.134 364.963 17.712 367.105 18.868C369.247 20.024 370.913 21.673 372.103 23.815C373.327 25.957 373.939 28.456 373.939 31.312ZM365.014 29.017C365.014 27.521 364.504 26.331 363.484 25.447C362.464 24.563 361.189 24.121 359.659 24.121C358.197 24.121 356.956 24.546 355.936 25.396C354.95 26.246 354.338 27.453 354.1 29.017H365.014ZM390.117 46.408C387.635 46.408 385.425 45.983 383.487 45.133C381.549 44.283 380.019 43.127 378.897 41.665C377.775 40.169 377.146 38.503 377.01 36.667H385.629C385.731 37.653 386.19 38.452 387.006 39.064C387.822 39.676 388.825 39.982 390.015 39.982C391.103 39.982 391.936 39.778 392.514 39.37C393.126 38.928 393.432 38.367 393.432 37.687C393.432 36.871 393.007 36.276 392.157 35.902C391.307 35.494 389.93 35.052 388.026 34.576C385.986 34.1 384.286 33.607 382.926 33.097C381.566 32.553 380.393 31.72 379.407 30.598C378.421 29.442 377.928 27.895 377.928 25.957C377.928 24.325 378.37 22.846 379.254 21.52C380.172 20.16 381.498 19.089 383.232 18.307C385 17.525 387.091 17.134 389.505 17.134C393.075 17.134 395.88 18.018 397.92 19.786C399.994 21.554 401.184 23.9 401.49 26.824H393.432C393.296 25.838 392.854 25.056 392.106 24.478C391.392 23.9 390.44 23.611 389.25 23.611C388.23 23.611 387.448 23.815 386.904 24.223C386.36 24.597 386.088 25.124 386.088 25.804C386.088 26.62 386.513 27.232 387.363 27.64C388.247 28.048 389.607 28.456 391.443 28.864C393.551 29.408 395.268 29.952 396.594 30.496C397.92 31.006 399.076 31.856 400.062 33.046C401.082 34.202 401.609 35.766 401.643 37.738C401.643 39.404 401.167 40.9 400.215 42.226C399.297 43.518 397.954 44.538 396.186 45.286C394.452 46.034 392.429 46.408 390.117 46.408Z" fill="white"/>
</svg>
