<svg width="1334" height="210" viewBox="0 0 1334 210" fill="none" xmlns="http://www.w3.org/2000/svg">
<path d="M872.939 9.43864C873.566 7.96026 875.016 7 876.622 7H1328.24C1331.03 7 1332.96 9.78426 1331.99 12.3982L1298.03 103.398C1297.45 104.963 1295.96 106 1294.29 106H838.041C835.176 106 833.24 103.076 834.358 100.439L872.939 9.43864Z" fill="#7257EF"/>
<path d="M97.6266 25.16V81H86.4266V44.68L71.4666 81H62.9866L47.9466 44.68V81H36.7466V25.16H49.4666L67.2266 66.68L84.9866 25.16H97.6266ZM116.38 31.4C114.406 31.4 112.753 30.7867 111.42 29.56C110.14 28.28 109.5 26.7067 109.5 24.84C109.5 22.9733 110.14 21.4267 111.42 20.2C112.753 18.92 114.406 18.28 116.38 18.28C118.353 18.28 119.98 18.92 121.26 20.2C122.593 21.4267 123.26 22.9733 123.26 24.84C123.26 26.7067 122.593 28.28 121.26 29.56C119.98 30.7867 118.353 31.4 116.38 31.4ZM121.9 36.68V81H110.7V36.68H121.9ZM159.525 36.04C164.805 36.04 169.072 37.72 172.325 41.08C175.579 44.3867 177.205 49.0267 177.205 55V81H166.005V56.52C166.005 53 165.125 50.3067 163.365 48.44C161.605 46.52 159.205 45.56 156.165 45.56C153.072 45.56 150.619 46.52 148.805 48.44C147.045 50.3067 146.165 53 146.165 56.52V81H134.965V36.68H146.165V42.2C147.659 40.28 149.552 38.7867 151.845 37.72C154.192 36.6 156.752 36.04 159.525 36.04ZM202.896 45.88V67.32C202.896 68.8133 203.243 69.9067 203.936 70.6C204.683 71.24 205.909 71.56 207.616 71.56H212.816V81H205.776C196.336 81 191.616 76.4133 191.616 67.24V45.88H186.336V36.68H191.616V25.72H202.896V36.68H212.816V45.88H202.896ZM228.552 31.4C226.578 31.4 224.925 30.7867 223.592 29.56C222.312 28.28 221.672 26.7067 221.672 24.84C221.672 22.9733 222.312 21.4267 223.592 20.2C224.925 18.92 226.578 18.28 228.552 18.28C230.525 18.28 232.152 18.92 233.432 20.2C234.765 21.4267 235.432 22.9733 235.432 24.84C235.432 26.7067 234.765 28.28 233.432 29.56C232.152 30.7867 230.525 31.4 228.552 31.4ZM234.072 36.68V81H222.872V36.68H234.072ZM271.697 36.04C276.977 36.04 281.244 37.72 284.497 41.08C287.751 44.3867 289.377 49.0267 289.377 55V81H278.177V56.52C278.177 53 277.297 50.3067 275.537 48.44C273.777 46.52 271.377 45.56 268.337 45.56C265.244 45.56 262.791 46.52 260.977 48.44C259.217 50.3067 258.337 53 258.337 56.52V81H247.137V36.68H258.337V42.2C259.831 40.28 261.724 38.7867 264.017 37.72C266.364 36.6 268.924 36.04 271.697 36.04ZM319.388 35.96C322.694 35.96 325.601 36.6267 328.108 37.96C330.614 39.24 332.588 40.92 334.028 43V36.68H345.308V81.32C345.308 85.4267 344.481 89.08 342.828 92.28C341.174 95.5333 338.694 98.0933 335.388 99.96C332.081 101.88 328.081 102.84 323.388 102.84C317.094 102.84 311.921 101.373 307.868 98.44C303.868 95.5067 301.601 91.5067 301.068 86.44H312.188C312.774 88.4667 314.028 90.0667 315.948 91.24C317.921 92.4667 320.294 93.08 323.068 93.08C326.321 93.08 328.961 92.0933 330.988 90.12C333.014 88.2 334.028 85.2667 334.028 81.32V74.44C332.588 76.52 330.588 78.2533 328.028 79.64C325.521 81.0267 322.641 81.72 319.388 81.72C315.654 81.72 312.241 80.76 309.148 78.84C306.054 76.92 303.601 74.2267 301.788 70.76C300.028 67.24 299.148 63.2133 299.148 58.68C299.148 54.2 300.028 50.2267 301.788 46.76C303.601 43.2933 306.028 40.6267 309.068 38.76C312.161 36.8933 315.601 35.96 319.388 35.96ZM334.028 58.84C334.028 56.12 333.494 53.8 332.428 51.88C331.361 49.9067 329.921 48.4133 328.108 47.4C326.294 46.3333 324.348 45.8 322.268 45.8C320.188 45.8 318.268 46.3067 316.508 47.32C314.748 48.3333 313.308 49.8267 312.188 51.8C311.121 53.72 310.588 56.0133 310.588 58.68C310.588 61.3467 311.121 63.6933 312.188 65.72C313.308 67.6933 314.748 69.2133 316.508 70.28C318.321 71.3467 320.241 71.88 322.268 71.88C324.348 71.88 326.294 71.3733 328.108 70.36C329.921 69.2933 331.361 67.8 332.428 65.88C333.494 63.9067 334.028 61.56 334.028 58.84ZM440.749 36.68L427.789 81H415.709L407.629 50.04L399.549 81H387.389L374.349 36.68H385.709L393.549 70.44L402.029 36.68H413.869L422.189 70.36L430.029 36.68H440.749ZM454.489 31.4C452.516 31.4 450.862 30.7867 449.529 29.56C448.249 28.28 447.609 26.7067 447.609 24.84C447.609 22.9733 448.249 21.4267 449.529 20.2C450.862 18.92 452.516 18.28 454.489 18.28C456.462 18.28 458.089 18.92 459.369 20.2C460.702 21.4267 461.369 22.9733 461.369 24.84C461.369 26.7067 460.702 28.28 459.369 29.56C458.089 30.7867 456.462 31.4 454.489 31.4ZM460.009 36.68V81H448.809V36.68H460.009ZM484.275 21.8V81H473.075V21.8H484.275ZM508.54 21.8V81H497.34V21.8H508.54ZM553.868 43.16C555.308 41.0267 557.282 39.2933 559.788 37.96C562.348 36.6267 565.255 35.96 568.508 35.96C572.295 35.96 575.708 36.8933 578.748 38.76C581.842 40.6267 584.268 43.2933 586.028 46.76C587.842 50.1733 588.748 54.1467 588.748 58.68C588.748 63.2133 587.842 67.24 586.028 70.76C584.268 74.2267 581.842 76.92 578.748 78.84C575.708 80.76 572.295 81.72 568.508 81.72C565.202 81.72 562.295 81.08 559.788 79.8C557.335 78.4667 555.362 76.76 553.868 74.68V81H542.668V21.8H553.868V43.16ZM577.308 58.68C577.308 56.0133 576.748 53.72 575.628 51.8C574.562 49.8267 573.122 48.3333 571.308 47.32C569.548 46.3067 567.628 45.8 565.548 45.8C563.522 45.8 561.602 46.3333 559.788 47.4C558.028 48.4133 556.588 49.9067 555.468 51.88C554.402 53.8533 553.868 56.1733 553.868 58.84C553.868 61.5067 554.402 63.8267 555.468 65.8C556.588 67.7733 558.028 69.2933 559.788 70.36C561.602 71.3733 563.522 71.88 565.548 71.88C567.628 71.88 569.548 71.3467 571.308 70.28C573.122 69.2133 574.562 67.6933 575.628 65.72C576.748 63.7467 577.308 61.4 577.308 58.68ZM640.087 57.88C640.087 59.48 639.981 60.92 639.767 62.2H607.367C607.634 65.4 608.754 67.9067 610.727 69.72C612.701 71.5333 615.127 72.44 618.007 72.44C622.167 72.44 625.127 70.6533 626.887 67.08H638.967C637.687 71.3467 635.234 74.8667 631.607 77.64C627.981 80.36 623.527 81.72 618.247 81.72C613.981 81.72 610.141 80.7867 606.727 78.92C603.367 77 600.727 74.3067 598.807 70.84C596.941 67.3733 596.007 63.3733 596.007 58.84C596.007 54.2533 596.941 50.2267 598.807 46.76C600.674 43.2933 603.287 40.6267 606.647 38.76C610.007 36.8933 613.874 35.96 618.247 35.96C622.461 35.96 626.221 36.8667 629.527 38.68C632.887 40.4933 635.474 43.08 637.287 46.44C639.154 49.7467 640.087 53.56 640.087 57.88ZM628.487 54.68C628.434 51.8 627.394 49.5067 625.367 47.8C623.341 46.04 620.861 45.16 617.927 45.16C615.154 45.16 612.807 46.0133 610.887 47.72C609.021 49.3733 607.874 51.6933 607.447 54.68H628.487ZM667.622 35.96C670.929 35.96 673.836 36.6267 676.342 37.96C678.849 39.24 680.822 40.92 682.262 43V36.68H693.542V81.32C693.542 85.4267 692.716 89.08 691.062 92.28C689.409 95.5333 686.929 98.0933 683.622 99.96C680.316 101.88 676.316 102.84 671.622 102.84C665.329 102.84 660.156 101.373 656.102 98.44C652.102 95.5067 649.836 91.5067 649.302 86.44H660.422C661.009 88.4667 662.262 90.0667 664.182 91.24C666.156 92.4667 668.529 93.08 671.302 93.08C674.556 93.08 677.196 92.0933 679.222 90.12C681.249 88.2 682.262 85.2667 682.262 81.32V74.44C680.822 76.52 678.822 78.2533 676.262 79.64C673.756 81.0267 670.876 81.72 667.622 81.72C663.889 81.72 660.476 80.76 657.382 78.84C654.289 76.92 651.836 74.2267 650.022 70.76C648.262 67.24 647.382 63.2133 647.382 58.68C647.382 54.2 648.262 50.2267 650.022 46.76C651.836 43.2933 654.262 40.6267 657.302 38.76C660.396 36.8933 663.836 35.96 667.622 35.96ZM682.262 58.84C682.262 56.12 681.729 53.8 680.662 51.88C679.596 49.9067 678.156 48.4133 676.342 47.4C674.529 46.3333 672.582 45.8 670.502 45.8C668.422 45.8 666.502 46.3067 664.742 47.32C662.982 48.3333 661.542 49.8267 660.422 51.8C659.356 53.72 658.822 56.0133 658.822 58.68C658.822 61.3467 659.356 63.6933 660.422 65.72C661.542 67.6933 662.982 69.2133 664.742 70.28C666.556 71.3467 668.476 71.88 670.502 71.88C672.582 71.88 674.529 71.3733 676.342 70.36C678.156 69.2933 679.596 67.8 680.662 65.88C681.729 63.9067 682.262 61.56 682.262 58.84ZM712.161 31.4C710.188 31.4 708.534 30.7867 707.201 29.56C705.921 28.28 705.281 26.7067 705.281 24.84C705.281 22.9733 705.921 21.4267 707.201 20.2C708.534 18.92 710.188 18.28 712.161 18.28C714.134 18.28 715.761 18.92 717.041 20.2C718.374 21.4267 719.041 22.9733 719.041 24.84C719.041 26.7067 718.374 28.28 717.041 29.56C715.761 30.7867 714.134 31.4 712.161 31.4ZM717.681 36.68V81H706.481V36.68H717.681ZM755.307 36.04C760.587 36.04 764.853 37.72 768.107 41.08C771.36 44.3867 772.987 49.0267 772.987 55V81H761.787V56.52C761.787 53 760.907 50.3067 759.147 48.44C757.387 46.52 754.987 45.56 751.947 45.56C748.853 45.56 746.4 46.52 744.587 48.44C742.827 50.3067 741.947 53 741.947 56.52V81H730.747V36.68H741.947V42.2C743.44 40.28 745.333 38.7867 747.627 37.72C749.973 36.6 752.533 36.04 755.307 36.04ZM826.38 81.72C822.113 81.72 818.273 80.7867 814.86 78.92C811.446 77 808.753 74.3067 806.78 70.84C804.86 67.3733 803.9 63.3733 803.9 58.84C803.9 54.3067 804.886 50.3067 806.86 46.84C808.886 43.3733 811.633 40.7067 815.1 38.84C818.566 36.92 822.433 35.96 826.7 35.96C830.966 35.96 834.833 36.92 838.3 38.84C841.766 40.7067 844.486 43.3733 846.46 46.84C848.486 50.3067 849.5 54.3067 849.5 58.84C849.5 63.3733 848.46 67.3733 846.38 70.84C844.353 74.3067 841.58 77 838.06 78.92C834.593 80.7867 830.7 81.72 826.38 81.72ZM826.38 71.96C828.406 71.96 830.3 71.48 832.06 70.52C833.873 69.5067 835.313 68.0133 836.38 66.04C837.446 64.0667 837.98 61.6667 837.98 58.84C837.98 54.6267 836.86 51.4 834.62 49.16C832.433 46.8667 829.74 45.72 826.54 45.72C823.34 45.72 820.646 46.8667 818.46 49.16C816.326 51.4 815.26 54.6267 815.26 58.84C815.26 63.0533 816.3 66.3067 818.38 68.6C820.513 70.84 823.18 71.96 826.38 71.96ZM884.275 36.04C889.555 36.04 893.822 37.72 897.075 41.08C900.329 44.3867 901.955 49.0267 901.955 55V81H890.755V56.52C890.755 53 889.875 50.3067 888.115 48.44C886.355 46.52 883.955 45.56 880.915 45.56C877.822 45.56 875.369 46.52 873.555 48.44C871.795 50.3067 870.915 53 870.915 56.52V81H859.715V36.68H870.915V42.2C872.409 40.28 874.302 38.7867 876.595 37.72C878.942 36.6 881.502 36.04 884.275 36.04ZM968.228 25.16V64.36C968.228 69.8 966.655 74.04 963.508 77.08C960.362 80.0667 956.148 81.56 950.868 81.56C945.535 81.56 941.215 80.0133 937.908 76.92C934.655 73.8267 933.028 69.5067 933.028 63.96H944.228C944.282 66.36 944.842 68.2267 945.908 69.56C947.028 70.8933 948.628 71.56 950.708 71.56C952.735 71.56 954.282 70.92 955.348 69.64C956.415 68.36 956.948 66.6 956.948 64.36V25.16H968.228ZM980.413 58.68C980.413 54.2 981.293 50.2267 983.053 46.76C984.867 43.2933 987.293 40.6267 990.333 38.76C993.427 36.8933 996.867 35.96 1000.65 35.96C1003.96 35.96 1006.84 36.6267 1009.29 37.96C1011.8 39.2933 1013.8 40.9733 1015.29 43V36.68H1026.57V81H1015.29V74.52C1013.85 76.6 1011.85 78.3333 1009.29 79.72C1006.79 81.0533 1003.88 81.72 1000.57 81.72C996.84 81.72 993.427 80.76 990.333 78.84C987.293 76.92 984.867 74.2267 983.053 70.76C981.293 67.24 980.413 63.2133 980.413 58.68ZM1015.29 58.84C1015.29 56.12 1014.76 53.8 1013.69 51.88C1012.63 49.9067 1011.19 48.4133 1009.37 47.4C1007.56 46.3333 1005.61 45.8 1003.53 45.8C1001.45 45.8 999.533 46.3067 997.773 47.32C996.013 48.3333 994.573 49.8267 993.453 51.8C992.387 53.72 991.853 56.0133 991.853 58.68C991.853 61.3467 992.387 63.6933 993.453 65.72C994.573 67.6933 996.013 69.2133 997.773 70.28C999.587 71.3467 1001.51 71.88 1003.53 71.88C1005.61 71.88 1007.56 71.3733 1009.37 70.36C1011.19 69.2933 1012.63 67.8 1013.69 65.88C1014.76 63.9067 1015.29 61.56 1015.29 58.84ZM1064.07 36.04C1069.35 36.04 1073.62 37.72 1076.87 41.08C1080.13 44.3867 1081.75 49.0267 1081.75 55V81H1070.55V56.52C1070.55 53 1069.67 50.3067 1067.91 48.44C1066.15 46.52 1063.75 45.56 1060.71 45.56C1057.62 45.56 1055.17 46.52 1053.35 48.44C1051.59 50.3067 1050.71 53 1050.71 56.52V81H1039.51V36.68H1050.71V42.2C1052.21 40.28 1054.1 38.7867 1056.39 37.72C1058.74 36.6 1061.3 36.04 1064.07 36.04ZM1136.24 36.68V81H1124.96V75.4C1123.52 77.32 1121.63 78.84 1119.28 79.96C1116.99 81.0267 1114.48 81.56 1111.76 81.56C1108.3 81.56 1105.23 80.84 1102.56 79.4C1099.9 77.9067 1097.79 75.7467 1096.24 72.92C1094.75 70.04 1094 66.6267 1094 62.68V36.68H1105.2V61.08C1105.2 64.6 1106.08 67.32 1107.84 69.24C1109.6 71.1067 1112 72.04 1115.04 72.04C1118.14 72.04 1120.56 71.1067 1122.32 69.24C1124.08 67.32 1124.96 64.6 1124.96 61.08V36.68H1136.24ZM1146.41 58.68C1146.41 54.2 1147.29 50.2267 1149.05 46.76C1150.87 43.2933 1153.29 40.6267 1156.33 38.76C1159.43 36.8933 1162.87 35.96 1166.65 35.96C1169.96 35.96 1172.84 36.6267 1175.29 37.96C1177.8 39.2933 1179.8 40.9733 1181.29 43V36.68H1192.57V81H1181.29V74.52C1179.85 76.6 1177.85 78.3333 1175.29 79.72C1172.79 81.0533 1169.88 81.72 1166.57 81.72C1162.84 81.72 1159.43 80.76 1156.33 78.84C1153.29 76.92 1150.87 74.2267 1149.05 70.76C1147.29 67.24 1146.41 63.2133 1146.41 58.68ZM1181.29 58.84C1181.29 56.12 1180.76 53.8 1179.69 51.88C1178.63 49.9067 1177.19 48.4133 1175.37 47.4C1173.56 46.3333 1171.61 45.8 1169.53 45.8C1167.45 45.8 1165.53 46.3067 1163.77 47.32C1162.01 48.3333 1160.57 49.8267 1159.45 51.8C1158.39 53.72 1157.85 56.0133 1157.85 58.68C1157.85 61.3467 1158.39 63.6933 1159.45 65.72C1160.57 67.6933 1162.01 69.2133 1163.77 70.28C1165.59 71.3467 1167.51 71.88 1169.53 71.88C1171.61 71.88 1173.56 71.3733 1175.37 70.36C1177.19 69.2933 1178.63 67.8 1179.69 65.88C1180.76 63.9067 1181.29 61.56 1181.29 58.84ZM1216.71 43.56C1218.15 41.2133 1220.02 39.3733 1222.31 38.04C1224.66 36.7067 1227.33 36.04 1230.31 36.04V47.8H1227.35C1223.83 47.8 1221.17 48.6267 1219.35 50.28C1217.59 51.9333 1216.71 54.8133 1216.71 58.92V81H1205.51V36.68H1216.71V43.56ZM1282.26 36.68L1254.82 101.96H1242.9L1252.5 79.88L1234.74 36.68H1247.3L1258.74 67.64L1270.34 36.68H1282.26ZM182.963 173.36C188.083 169.093 192.163 165.547 195.203 162.72C198.243 159.84 200.776 156.853 202.803 153.76C204.83 150.667 205.843 147.627 205.843 144.64C205.843 141.92 205.203 139.787 203.923 138.24C202.643 136.693 200.67 135.92 198.003 135.92C195.336 135.92 193.283 136.827 191.843 138.64C190.403 140.4 189.656 142.827 189.603 145.92H178.723C178.936 139.52 180.83 134.667 184.403 131.36C188.03 128.053 192.616 126.4 198.163 126.4C204.243 126.4 208.91 128.027 212.163 131.28C215.416 134.48 217.043 138.72 217.043 144C217.043 148.16 215.923 152.133 213.683 155.92C211.443 159.707 208.883 163.013 206.003 165.84C203.123 168.613 199.363 171.973 194.723 175.92H218.323V185.2H178.803V176.88L182.963 173.36ZM227.381 156.08C227.381 146.853 229.034 139.627 232.341 134.4C235.701 129.173 241.247 126.56 248.981 126.56C256.714 126.56 262.234 129.173 265.541 134.4C268.901 139.627 270.581 146.853 270.581 156.08C270.581 165.36 268.901 172.64 265.541 177.92C262.234 183.2 256.714 185.84 248.981 185.84C241.247 185.84 235.701 183.2 232.341 177.92C229.034 172.64 227.381 165.36 227.381 156.08ZM259.541 156.08C259.541 152.133 259.274 148.827 258.741 146.16C258.261 143.44 257.247 141.227 255.701 139.52C254.207 137.813 251.967 136.96 248.981 136.96C245.994 136.96 243.727 137.813 242.181 139.52C240.687 141.227 239.674 143.44 239.141 146.16C238.661 148.827 238.421 152.133 238.421 156.08C238.421 160.133 238.661 163.547 239.141 166.32C239.621 169.04 240.634 171.253 242.181 172.96C243.727 174.613 245.994 175.44 248.981 175.44C251.967 175.44 254.234 174.613 255.781 172.96C257.327 171.253 258.341 169.04 258.821 166.32C259.301 163.547 259.541 160.133 259.541 156.08ZM295.419 150.88V172.32C295.419 173.813 295.766 174.907 296.459 175.6C297.206 176.24 298.433 176.56 300.139 176.56H305.339V186H298.299C288.859 186 284.139 181.413 284.139 172.24V150.88H278.859V141.68H284.139V130.72H295.419V141.68H305.339V150.88H295.419ZM340.355 141.04C343.715 141.04 346.702 141.787 349.315 143.28C351.928 144.72 353.955 146.88 355.395 149.76C356.888 152.587 357.635 156 357.635 160V186H346.435V161.52C346.435 158 345.555 155.307 343.795 153.44C342.035 151.52 339.635 150.56 336.595 150.56C333.502 150.56 331.048 151.52 329.235 153.44C327.475 155.307 326.595 158 326.595 161.52V186H315.395V126.8H326.595V147.2C328.035 145.28 329.955 143.787 332.355 142.72C334.755 141.6 337.422 141.04 340.355 141.04ZM393.588 173.36C398.708 169.093 402.788 165.547 405.828 162.72C408.868 159.84 411.401 156.853 413.428 153.76C415.455 150.667 416.468 147.627 416.468 144.64C416.468 141.92 415.828 139.787 414.548 138.24C413.268 136.693 411.295 135.92 408.628 135.92C405.961 135.92 403.908 136.827 402.468 138.64C401.028 140.4 400.281 142.827 400.228 145.92H389.348C389.561 139.52 391.455 134.667 395.028 131.36C398.655 128.053 403.241 126.4 408.788 126.4C414.868 126.4 419.535 128.027 422.788 131.28C426.041 134.48 427.668 138.72 427.668 144C427.668 148.16 426.548 152.133 424.308 155.92C422.068 159.707 419.508 163.013 416.628 165.84C413.748 168.613 409.988 171.973 405.348 175.92H428.948V185.2H389.428V176.88L393.588 173.36ZM438.006 156.08C438.006 146.853 439.659 139.627 442.966 134.4C446.326 129.173 451.872 126.56 459.606 126.56C467.339 126.56 472.859 129.173 476.166 134.4C479.526 139.627 481.206 146.853 481.206 156.08C481.206 165.36 479.526 172.64 476.166 177.92C472.859 183.2 467.339 185.84 459.606 185.84C451.872 185.84 446.326 183.2 442.966 177.92C439.659 172.64 438.006 165.36 438.006 156.08ZM470.166 156.08C470.166 152.133 469.899 148.827 469.366 146.16C468.886 143.44 467.872 141.227 466.326 139.52C464.832 137.813 462.592 136.96 459.606 136.96C456.619 136.96 454.352 137.813 452.806 139.52C451.312 141.227 450.299 143.44 449.766 146.16C449.286 148.827 449.046 152.133 449.046 156.08C449.046 160.133 449.286 163.547 449.766 166.32C450.246 169.04 451.259 171.253 452.806 172.96C454.352 174.613 456.619 175.44 459.606 175.44C462.592 175.44 464.859 174.613 466.406 172.96C467.952 171.253 468.966 169.04 469.446 166.32C469.926 163.547 470.166 160.133 470.166 156.08ZM495.244 173.36C500.364 169.093 504.444 165.547 507.484 162.72C510.524 159.84 513.058 156.853 515.084 153.76C517.111 150.667 518.124 147.627 518.124 144.64C518.124 141.92 517.484 139.787 516.204 138.24C514.924 136.693 512.951 135.92 510.284 135.92C507.618 135.92 505.564 136.827 504.124 138.64C502.684 140.4 501.938 142.827 501.884 145.92H491.004C491.218 139.52 493.111 134.667 496.684 131.36C500.311 128.053 504.898 126.4 510.444 126.4C516.524 126.4 521.191 128.027 524.444 131.28C527.698 134.48 529.324 138.72 529.324 144C529.324 148.16 528.204 152.133 525.964 155.92C523.724 159.707 521.164 163.013 518.284 165.84C515.404 168.613 511.644 171.973 507.004 175.92H530.604V185.2H491.084V176.88L495.244 173.36ZM543.182 173.36C548.302 169.093 552.382 165.547 555.422 162.72C558.462 159.84 560.995 156.853 563.022 153.76C565.049 150.667 566.062 147.627 566.062 144.64C566.062 141.92 565.422 139.787 564.142 138.24C562.862 136.693 560.889 135.92 558.222 135.92C555.555 135.92 553.502 136.827 552.062 138.64C550.622 140.4 549.875 142.827 549.822 145.92H538.942C539.155 139.52 541.049 134.667 544.622 131.36C548.249 128.053 552.835 126.4 558.382 126.4C564.462 126.4 569.129 128.027 572.382 131.28C575.635 134.48 577.262 138.72 577.262 144C577.262 148.16 576.142 152.133 573.902 155.92C571.662 159.707 569.102 163.013 566.222 165.84C563.342 168.613 559.582 171.973 554.942 175.92H578.542V185.2H539.022V176.88L543.182 173.36ZM607.062 163.68C607.062 159.2 607.942 155.227 609.702 151.76C611.515 148.293 613.942 145.627 616.982 143.76C620.075 141.893 623.515 140.96 627.302 140.96C630.609 140.96 633.489 141.627 635.942 142.96C638.449 144.293 640.449 145.973 641.942 148V141.68H653.222V186H641.942V179.52C640.502 181.6 638.502 183.333 635.942 184.72C633.435 186.053 630.529 186.72 627.222 186.72C623.489 186.72 620.075 185.76 616.982 183.84C613.942 181.92 611.515 179.227 609.702 175.76C607.942 172.24 607.062 168.213 607.062 163.68ZM641.942 163.84C641.942 161.12 641.409 158.8 640.342 156.88C639.275 154.907 637.835 153.413 636.022 152.4C634.209 151.333 632.262 150.8 630.182 150.8C628.102 150.8 626.182 151.307 624.422 152.32C622.662 153.333 621.222 154.827 620.102 156.8C619.035 158.72 618.502 161.013 618.502 163.68C618.502 166.347 619.035 168.693 620.102 170.72C621.222 172.693 622.662 174.213 624.422 175.28C626.235 176.347 628.155 176.88 630.182 176.88C632.262 176.88 634.209 176.373 636.022 175.36C637.835 174.293 639.275 172.8 640.342 170.88C641.409 168.907 641.942 166.56 641.942 163.84ZM679.201 150.88V172.32C679.201 173.813 679.547 174.907 680.241 175.6C680.987 176.24 682.214 176.56 683.921 176.56H689.121V186H682.081C672.641 186 667.921 181.413 667.921 172.24V150.88H662.641V141.68H667.921V130.72H679.201V141.68H689.121V150.88H679.201ZM718.959 156.08C718.959 146.853 720.612 139.627 723.919 134.4C727.279 129.173 732.825 126.56 740.559 126.56C748.292 126.56 753.812 129.173 757.119 134.4C760.479 139.627 762.159 146.853 762.159 156.08C762.159 165.36 760.479 172.64 757.119 177.92C753.812 183.2 748.292 185.84 740.559 185.84C732.825 185.84 727.279 183.2 723.919 177.92C720.612 172.64 718.959 165.36 718.959 156.08ZM751.119 156.08C751.119 152.133 750.852 148.827 750.319 146.16C749.839 143.44 748.825 141.227 747.279 139.52C745.785 137.813 743.545 136.96 740.559 136.96C737.572 136.96 735.305 137.813 733.759 139.52C732.265 141.227 731.252 143.44 730.719 146.16C730.239 148.827 729.999 152.133 729.999 156.08C729.999 160.133 730.239 163.547 730.719 166.32C731.199 169.04 732.212 171.253 733.759 172.96C735.305 174.613 737.572 175.44 740.559 175.44C743.545 175.44 745.812 174.613 747.359 172.96C748.905 171.253 749.919 169.04 750.399 166.32C750.879 163.547 751.119 160.133 751.119 156.08ZM811.878 137.36H785.958V151.04C787.078 149.653 788.678 148.533 790.758 147.68C792.838 146.773 795.051 146.32 797.398 146.32C801.664 146.32 805.158 147.253 807.878 149.12C810.598 150.987 812.571 153.387 813.798 156.32C815.024 159.2 815.638 162.293 815.638 165.6C815.638 171.733 813.878 176.667 810.358 180.4C806.891 184.133 801.931 186 795.478 186C789.398 186 784.544 184.48 780.918 181.44C777.291 178.4 775.238 174.427 774.758 169.52H785.638C786.118 171.653 787.184 173.36 788.838 174.64C790.544 175.92 792.704 176.56 795.318 176.56C798.464 176.56 800.838 175.573 802.438 173.6C804.038 171.627 804.838 169.013 804.838 165.76C804.838 162.453 804.011 159.947 802.358 158.24C800.758 156.48 798.384 155.6 795.238 155.6C792.998 155.6 791.131 156.16 789.638 157.28C788.144 158.4 787.078 159.893 786.438 161.76H775.718V127.52H811.878V137.36ZM832.402 186.56C830.375 186.56 828.695 185.947 827.362 184.72C826.082 183.44 825.442 181.867 825.442 180C825.442 178.133 826.082 176.587 827.362 175.36C828.695 174.08 830.375 173.44 832.402 173.44C834.375 173.44 836.002 174.08 837.282 175.36C838.562 176.587 839.202 178.133 839.202 180C839.202 181.867 838.562 183.44 837.282 184.72C836.002 185.947 834.375 186.56 832.402 186.56ZM832.402 153.44C830.375 153.44 828.695 152.827 827.362 151.6C826.082 150.32 825.442 148.747 825.442 146.88C825.442 145.013 826.082 143.467 827.362 142.24C828.695 140.96 830.375 140.32 832.402 140.32C834.375 140.32 836.002 140.96 837.282 142.24C838.562 143.467 839.202 145.013 839.202 146.88C839.202 148.747 838.562 150.32 837.282 151.6C836.002 152.827 834.375 153.44 832.402 153.44ZM849.178 156.08C849.178 146.853 850.831 139.627 854.138 134.4C857.498 129.173 863.044 126.56 870.778 126.56C878.511 126.56 884.031 129.173 887.338 134.4C890.698 139.627 892.378 146.853 892.378 156.08C892.378 165.36 890.698 172.64 887.338 177.92C884.031 183.2 878.511 185.84 870.778 185.84C863.044 185.84 857.498 183.2 854.138 177.92C850.831 172.64 849.178 165.36 849.178 156.08ZM881.338 156.08C881.338 152.133 881.071 148.827 880.538 146.16C880.058 143.44 879.044 141.227 877.498 139.52C876.004 137.813 873.764 136.96 870.778 136.96C867.791 136.96 865.524 137.813 863.978 139.52C862.484 141.227 861.471 143.44 860.938 146.16C860.458 148.827 860.218 152.133 860.218 156.08C860.218 160.133 860.458 163.547 860.938 166.32C861.418 169.04 862.431 171.253 863.978 172.96C865.524 174.613 867.791 175.44 870.778 175.44C873.764 175.44 876.031 174.613 877.578 172.96C879.124 171.253 880.138 169.04 880.618 166.32C881.098 163.547 881.338 160.133 881.338 156.08ZM902.896 156.08C902.896 146.853 904.55 139.627 907.856 134.4C911.216 129.173 916.763 126.56 924.496 126.56C932.23 126.56 937.75 129.173 941.056 134.4C944.416 139.627 946.096 146.853 946.096 156.08C946.096 165.36 944.416 172.64 941.056 177.92C937.75 183.2 932.23 185.84 924.496 185.84C916.763 185.84 911.216 183.2 907.856 177.92C904.55 172.64 902.896 165.36 902.896 156.08ZM935.056 156.08C935.056 152.133 934.79 148.827 934.256 146.16C933.776 143.44 932.763 141.227 931.216 139.52C929.723 137.813 927.483 136.96 924.496 136.96C921.51 136.96 919.243 137.813 917.696 139.52C916.203 141.227 915.19 143.44 914.656 146.16C914.176 148.827 913.936 152.133 913.936 156.08C913.936 160.133 914.176 163.547 914.656 166.32C915.136 169.04 916.15 171.253 917.696 172.96C919.243 174.613 921.51 175.44 924.496 175.44C927.483 175.44 929.75 174.613 931.296 172.96C932.843 171.253 933.856 169.04 934.336 166.32C934.816 163.547 935.056 160.133 935.056 156.08ZM989.998 130.16V164.72C989.998 168.507 990.984 171.413 992.958 173.44C994.931 175.413 997.704 176.4 1001.28 176.4C1004.9 176.4 1007.7 175.413 1009.68 173.44C1011.65 171.413 1012.64 168.507 1012.64 164.72V130.16H1023.92V164.64C1023.92 169.387 1022.88 173.413 1020.8 176.72C1018.77 179.973 1016.02 182.427 1012.56 184.08C1009.14 185.733 1005.33 186.56 1001.12 186.56C996.958 186.56 993.171 185.733 989.758 184.08C986.398 182.427 983.731 179.973 981.758 176.72C979.784 173.413 978.798 169.387 978.798 164.64V130.16H989.998ZM1074.74 130.16V139.2H1059.86V186H1048.66V139.2H1033.78V130.16H1074.74ZM1082.19 158C1082.19 152.507 1083.42 147.6 1085.87 143.28C1088.38 138.907 1091.76 135.52 1096.03 133.12C1100.35 130.667 1105.18 129.44 1110.51 129.44C1116.75 129.44 1122.22 131.04 1126.91 134.24C1131.6 137.44 1134.88 141.867 1136.75 147.52H1123.87C1122.59 144.853 1120.78 142.853 1118.43 141.52C1116.14 140.187 1113.47 139.52 1110.43 139.52C1107.18 139.52 1104.27 140.293 1101.71 141.84C1099.2 143.333 1097.23 145.467 1095.79 148.24C1094.4 151.013 1093.71 154.267 1093.71 158C1093.71 161.68 1094.4 164.933 1095.79 167.76C1097.23 170.533 1099.2 172.693 1101.71 174.24C1104.27 175.733 1107.18 176.48 1110.43 176.48C1113.47 176.48 1116.14 175.813 1118.43 174.48C1120.78 173.093 1122.59 171.067 1123.87 168.4H1136.75C1134.88 174.107 1131.6 178.56 1126.91 181.76C1122.27 184.907 1116.8 186.48 1110.51 186.48C1105.18 186.48 1100.35 185.28 1096.03 182.88C1091.76 180.427 1088.38 177.04 1085.87 172.72C1083.42 168.4 1082.19 163.493 1082.19 158Z" fill="white"/>
</svg>
