<svg width="779" height="315" viewBox="0 0 779 315" fill="none" xmlns="http://www.w3.org/2000/svg">
<path d="M317.939 9.43864C318.566 7.96026 320.016 7 321.622 7H773.238C776.028 7 777.961 9.78426 776.986 12.3982L743.034 103.398C742.451 104.963 740.956 106 739.287 106H283.041C280.176 106 278.24 103.076 279.358 100.439L317.939 9.43864Z" fill="#7257EF"/>
<path d="M72.4547 25.16V81H61.2547V44.68L46.2947 81H37.8147L22.7747 44.68V81H11.5747V25.16H24.2947L42.0547 66.68L59.8147 25.16H72.4547ZM91.2078 31.4C89.2345 31.4 87.5811 30.7867 86.2478 29.56C84.9678 28.28 84.3278 26.7067 84.3278 24.84C84.3278 22.9733 84.9678 21.4267 86.2478 20.2C87.5811 18.92 89.2345 18.28 91.2078 18.28C93.1811 18.28 94.8078 18.92 96.0878 20.2C97.4211 21.4267 98.0878 22.9733 98.0878 24.84C98.0878 26.7067 97.4211 28.28 96.0878 29.56C94.8078 30.7867 93.1811 31.4 91.2078 31.4ZM96.7278 36.68V81H85.5278V36.68H96.7278ZM134.353 36.04C139.633 36.04 143.9 37.72 147.153 41.08C150.407 44.3867 152.033 49.0267 152.033 55V81H140.833V56.52C140.833 53 139.953 50.3067 138.193 48.44C136.433 46.52 134.033 45.56 130.993 45.56C127.9 45.56 125.447 46.52 123.633 48.44C121.873 50.3067 120.993 53 120.993 56.52V81H109.793V36.68H120.993V42.2C122.487 40.28 124.38 38.7867 126.673 37.72C129.02 36.6 131.58 36.04 134.353 36.04ZM177.724 45.88V67.32C177.724 68.8133 178.071 69.9067 178.764 70.6C179.511 71.24 180.737 71.56 182.444 71.56H187.644V81H180.604C171.164 81 166.444 76.4133 166.444 67.24V45.88H161.164V36.68H166.444V25.72H177.724V36.68H187.644V45.88H177.724ZM203.38 31.4C201.406 31.4 199.753 30.7867 198.42 29.56C197.14 28.28 196.5 26.7067 196.5 24.84C196.5 22.9733 197.14 21.4267 198.42 20.2C199.753 18.92 201.406 18.28 203.38 18.28C205.353 18.28 206.98 18.92 208.26 20.2C209.593 21.4267 210.26 22.9733 210.26 24.84C210.26 26.7067 209.593 28.28 208.26 29.56C206.98 30.7867 205.353 31.4 203.38 31.4ZM208.9 36.68V81H197.7V36.68H208.9ZM246.525 36.04C251.805 36.04 256.072 37.72 259.325 41.08C262.579 44.3867 264.205 49.0267 264.205 55V81H253.005V56.52C253.005 53 252.125 50.3067 250.365 48.44C248.605 46.52 246.205 45.56 243.165 45.56C240.072 45.56 237.619 46.52 235.805 48.44C234.045 50.3067 233.165 53 233.165 56.52V81H221.965V36.68H233.165V42.2C234.659 40.28 236.552 38.7867 238.845 37.72C241.192 36.6 243.752 36.04 246.525 36.04ZM294.216 35.96C297.523 35.96 300.429 36.6267 302.936 37.96C305.443 39.24 307.416 40.92 308.856 43V36.68H320.136V81.32C320.136 85.4267 319.309 89.08 317.656 92.28C316.003 95.5333 313.523 98.0933 310.216 99.96C306.909 101.88 302.909 102.84 298.216 102.84C291.923 102.84 286.749 101.373 282.696 98.44C278.696 95.5067 276.429 91.5067 275.896 86.44H287.016C287.603 88.4667 288.856 90.0667 290.776 91.24C292.749 92.4667 295.123 93.08 297.896 93.08C301.149 93.08 303.789 92.0933 305.816 90.12C307.843 88.2 308.856 85.2667 308.856 81.32V74.44C307.416 76.52 305.416 78.2533 302.856 79.64C300.349 81.0267 297.469 81.72 294.216 81.72C290.483 81.72 287.069 80.76 283.976 78.84C280.883 76.92 278.429 74.2267 276.616 70.76C274.856 67.24 273.976 63.2133 273.976 58.68C273.976 54.2 274.856 50.2267 276.616 46.76C278.429 43.2933 280.856 40.6267 283.896 38.76C286.989 36.8933 290.429 35.96 294.216 35.96ZM308.856 58.84C308.856 56.12 308.323 53.8 307.256 51.88C306.189 49.9067 304.749 48.4133 302.936 47.4C301.123 46.3333 299.176 45.8 297.096 45.8C295.016 45.8 293.096 46.3067 291.336 47.32C289.576 48.3333 288.136 49.8267 287.016 51.8C285.949 53.72 285.416 56.0133 285.416 58.68C285.416 61.3467 285.949 63.6933 287.016 65.72C288.136 67.6933 289.576 69.2133 291.336 70.28C293.149 71.3467 295.069 71.88 297.096 71.88C299.176 71.88 301.123 71.3733 302.936 70.36C304.749 69.2933 306.189 67.8 307.256 65.88C308.323 63.9067 308.856 61.56 308.856 58.84ZM415.577 36.68L402.617 81H390.537L382.457 50.04L374.377 81H362.217L349.177 36.68H360.537L368.377 70.44L376.857 36.68H388.697L397.017 70.36L404.857 36.68H415.577ZM429.317 31.4C427.344 31.4 425.691 30.7867 424.357 29.56C423.077 28.28 422.437 26.7067 422.437 24.84C422.437 22.9733 423.077 21.4267 424.357 20.2C425.691 18.92 427.344 18.28 429.317 18.28C431.291 18.28 432.917 18.92 434.197 20.2C435.531 21.4267 436.197 22.9733 436.197 24.84C436.197 26.7067 435.531 28.28 434.197 29.56C432.917 30.7867 431.291 31.4 429.317 31.4ZM434.837 36.68V81H423.637V36.68H434.837ZM459.103 21.8V81H447.903V21.8H459.103ZM483.368 21.8V81H472.168V21.8H483.368ZM528.697 43.16C530.137 41.0267 532.11 39.2933 534.617 37.96C537.177 36.6267 540.083 35.96 543.337 35.96C547.123 35.96 550.537 36.8933 553.577 38.76C556.67 40.6267 559.097 43.2933 560.857 46.76C562.67 50.1733 563.577 54.1467 563.577 58.68C563.577 63.2133 562.67 67.24 560.857 70.76C559.097 74.2267 556.67 76.92 553.577 78.84C550.537 80.76 547.123 81.72 543.337 81.72C540.03 81.72 537.123 81.08 534.617 79.8C532.163 78.4667 530.19 76.76 528.697 74.68V81H517.497V21.8H528.697V43.16ZM552.137 58.68C552.137 56.0133 551.577 53.72 550.457 51.8C549.39 49.8267 547.95 48.3333 546.137 47.32C544.377 46.3067 542.457 45.8 540.377 45.8C538.35 45.8 536.43 46.3333 534.617 47.4C532.857 48.4133 531.417 49.9067 530.297 51.88C529.23 53.8533 528.697 56.1733 528.697 58.84C528.697 61.5067 529.23 63.8267 530.297 65.8C531.417 67.7733 532.857 69.2933 534.617 70.36C536.43 71.3733 538.35 71.88 540.377 71.88C542.457 71.88 544.377 71.3467 546.137 70.28C547.95 69.2133 549.39 67.6933 550.457 65.72C551.577 63.7467 552.137 61.4 552.137 58.68ZM614.915 57.88C614.915 59.48 614.809 60.92 614.595 62.2H582.195C582.462 65.4 583.582 67.9067 585.555 69.72C587.529 71.5333 589.955 72.44 592.835 72.44C596.995 72.44 599.955 70.6533 601.715 67.08H613.795C612.515 71.3467 610.062 74.8667 606.435 77.64C602.809 80.36 598.355 81.72 593.075 81.72C588.809 81.72 584.969 80.7867 581.555 78.92C578.195 77 575.555 74.3067 573.635 70.84C571.769 67.3733 570.835 63.3733 570.835 58.84C570.835 54.2533 571.769 50.2267 573.635 46.76C575.502 43.2933 578.115 40.6267 581.475 38.76C584.835 36.8933 588.702 35.96 593.075 35.96C597.289 35.96 601.049 36.8667 604.355 38.68C607.715 40.4933 610.302 43.08 612.115 46.44C613.982 49.7467 614.915 53.56 614.915 57.88ZM603.315 54.68C603.262 51.8 602.222 49.5067 600.195 47.8C598.169 46.04 595.689 45.16 592.755 45.16C589.982 45.16 587.635 46.0133 585.715 47.72C583.849 49.3733 582.702 51.6933 582.275 54.68H603.315ZM642.45 35.96C645.757 35.96 648.664 36.6267 651.17 37.96C653.677 39.24 655.65 40.92 657.09 43V36.68H668.37V81.32C668.37 85.4267 667.544 89.08 665.89 92.28C664.237 95.5333 661.757 98.0933 658.45 99.96C655.144 101.88 651.144 102.84 646.45 102.84C640.157 102.84 634.984 101.373 630.93 98.44C626.93 95.5067 624.664 91.5067 624.13 86.44H635.25C635.837 88.4667 637.09 90.0667 639.01 91.24C640.984 92.4667 643.357 93.08 646.13 93.08C649.384 93.08 652.024 92.0933 654.05 90.12C656.077 88.2 657.09 85.2667 657.09 81.32V74.44C655.65 76.52 653.65 78.2533 651.09 79.64C648.584 81.0267 645.704 81.72 642.45 81.72C638.717 81.72 635.304 80.76 632.21 78.84C629.117 76.92 626.664 74.2267 624.85 70.76C623.09 67.24 622.21 63.2133 622.21 58.68C622.21 54.2 623.09 50.2267 624.85 46.76C626.664 43.2933 629.09 40.6267 632.13 38.76C635.224 36.8933 638.664 35.96 642.45 35.96ZM657.09 58.84C657.09 56.12 656.557 53.8 655.49 51.88C654.424 49.9067 652.984 48.4133 651.17 47.4C649.357 46.3333 647.41 45.8 645.33 45.8C643.25 45.8 641.33 46.3067 639.57 47.32C637.81 48.3333 636.37 49.8267 635.25 51.8C634.184 53.72 633.65 56.0133 633.65 58.68C633.65 61.3467 634.184 63.6933 635.25 65.72C636.37 67.6933 637.81 69.2133 639.57 70.28C641.384 71.3467 643.304 71.88 645.33 71.88C647.41 71.88 649.357 71.3733 651.17 70.36C652.984 69.2933 654.424 67.8 655.49 65.88C656.557 63.9067 657.09 61.56 657.09 58.84ZM686.989 31.4C685.016 31.4 683.362 30.7867 682.029 29.56C680.749 28.28 680.109 26.7067 680.109 24.84C680.109 22.9733 680.749 21.4267 682.029 20.2C683.362 18.92 685.016 18.28 686.989 18.28C688.962 18.28 690.589 18.92 691.869 20.2C693.202 21.4267 693.869 22.9733 693.869 24.84C693.869 26.7067 693.202 28.28 691.869 29.56C690.589 30.7867 688.962 31.4 686.989 31.4ZM692.509 36.68V81H681.309V36.68H692.509ZM730.135 36.04C735.415 36.04 739.681 37.72 742.935 41.08C746.188 44.3867 747.815 49.0267 747.815 55V81H736.615V56.52C736.615 53 735.735 50.3067 733.975 48.44C732.215 46.52 729.815 45.56 726.775 45.56C723.681 45.56 721.228 46.52 719.415 48.44C717.655 50.3067 716.775 53 716.775 56.52V81H705.575V36.68H716.775V42.2C718.268 40.28 720.161 38.7867 722.455 37.72C724.801 36.6 727.361 36.04 730.135 36.04ZM58.5906 186.72C54.324 186.72 50.484 185.787 47.0706 183.92C43.6573 182 40.964 179.307 38.9906 175.84C37.0706 172.373 36.1106 168.373 36.1106 163.84C36.1106 159.307 37.0973 155.307 39.0706 151.84C41.0973 148.373 43.844 145.707 47.3106 143.84C50.7773 141.92 54.644 140.96 58.9106 140.96C63.1773 140.96 67.044 141.92 70.5106 143.84C73.9773 145.707 76.6973 148.373 78.6706 151.84C80.6973 155.307 81.7106 159.307 81.7106 163.84C81.7106 168.373 80.6706 172.373 78.5906 175.84C76.564 179.307 73.7906 182 70.2706 183.92C66.804 185.787 62.9106 186.72 58.5906 186.72ZM58.5906 176.96C60.6173 176.96 62.5106 176.48 64.2706 175.52C66.084 174.507 67.524 173.013 68.5906 171.04C69.6573 169.067 70.1906 166.667 70.1906 163.84C70.1906 159.627 69.0706 156.4 66.8306 154.16C64.644 151.867 61.9506 150.72 58.7506 150.72C55.5506 150.72 52.8573 151.867 50.6706 154.16C48.5373 156.4 47.4706 159.627 47.4706 163.84C47.4706 168.053 48.5106 171.307 50.5906 173.6C52.724 175.84 55.3906 176.96 58.5906 176.96ZM116.486 141.04C121.766 141.04 126.033 142.72 129.286 146.08C132.54 149.387 134.166 154.027 134.166 160V186H122.966V161.52C122.966 158 122.086 155.307 120.326 153.44C118.566 151.52 116.166 150.56 113.126 150.56C110.033 150.56 107.58 151.52 105.766 153.44C104.006 155.307 103.126 158 103.126 161.52V186H91.9263V141.68H103.126V147.2C104.62 145.28 106.513 143.787 108.806 142.72C111.153 141.6 113.713 141.04 116.486 141.04ZM200.439 130.16V169.36C200.439 174.8 198.866 179.04 195.719 182.08C192.573 185.067 188.359 186.56 183.079 186.56C177.746 186.56 173.426 185.013 170.119 181.92C166.866 178.827 165.239 174.507 165.239 168.96H176.439C176.493 171.36 177.053 173.227 178.119 174.56C179.239 175.893 180.839 176.56 182.919 176.56C184.946 176.56 186.493 175.92 187.559 174.64C188.626 173.36 189.159 171.6 189.159 169.36V130.16H200.439ZM212.624 163.68C212.624 159.2 213.504 155.227 215.264 151.76C217.078 148.293 219.504 145.627 222.544 143.76C225.638 141.893 229.078 140.96 232.864 140.96C236.171 140.96 239.051 141.627 241.504 142.96C244.011 144.293 246.011 145.973 247.504 148V141.68H258.784V186H247.504V179.52C246.064 181.6 244.064 183.333 241.504 184.72C238.998 186.053 236.091 186.72 232.784 186.72C229.051 186.72 225.638 185.76 222.544 183.84C219.504 181.92 217.078 179.227 215.264 175.76C213.504 172.24 212.624 168.213 212.624 163.68ZM247.504 163.84C247.504 161.12 246.971 158.8 245.904 156.88C244.838 154.907 243.398 153.413 241.584 152.4C239.771 151.333 237.824 150.8 235.744 150.8C233.664 150.8 231.744 151.307 229.984 152.32C228.224 153.333 226.784 154.827 225.664 156.8C224.598 158.72 224.064 161.013 224.064 163.68C224.064 166.347 224.598 168.693 225.664 170.72C226.784 172.693 228.224 174.213 229.984 175.28C231.798 176.347 233.718 176.88 235.744 176.88C237.824 176.88 239.771 176.373 241.584 175.36C243.398 174.293 244.838 172.8 245.904 170.88C246.971 168.907 247.504 166.56 247.504 163.84ZM296.283 141.04C301.563 141.04 305.83 142.72 309.083 146.08C312.336 149.387 313.963 154.027 313.963 160V186H302.763V161.52C302.763 158 301.883 155.307 300.123 153.44C298.363 151.52 295.963 150.56 292.923 150.56C289.83 150.56 287.376 151.52 285.563 153.44C283.803 155.307 282.923 158 282.923 161.52V186H271.723V141.68H282.923V147.2C284.416 145.28 286.31 143.787 288.603 142.72C290.95 141.6 293.51 141.04 296.283 141.04ZM368.454 141.68V186H357.174V180.4C355.734 182.32 353.84 183.84 351.494 184.96C349.2 186.027 346.694 186.56 343.974 186.56C340.507 186.56 337.44 185.84 334.774 184.4C332.107 182.907 330 180.747 328.454 177.92C326.96 175.04 326.214 171.627 326.214 167.68V141.68H337.414V166.08C337.414 169.6 338.294 172.32 340.054 174.24C341.814 176.107 344.214 177.04 347.254 177.04C350.347 177.04 352.774 176.107 354.534 174.24C356.294 172.32 357.174 169.6 357.174 166.08V141.68H368.454ZM378.624 163.68C378.624 159.2 379.504 155.227 381.264 151.76C383.078 148.293 385.504 145.627 388.544 143.76C391.638 141.893 395.078 140.96 398.864 140.96C402.171 140.96 405.051 141.627 407.504 142.96C410.011 144.293 412.011 145.973 413.504 148V141.68H424.784V186H413.504V179.52C412.064 181.6 410.064 183.333 407.504 184.72C404.998 186.053 402.091 186.72 398.784 186.72C395.051 186.72 391.638 185.76 388.544 183.84C385.504 181.92 383.078 179.227 381.264 175.76C379.504 172.24 378.624 168.213 378.624 163.68ZM413.504 163.84C413.504 161.12 412.971 158.8 411.904 156.88C410.838 154.907 409.398 153.413 407.584 152.4C405.771 151.333 403.824 150.8 401.744 150.8C399.664 150.8 397.744 151.307 395.984 152.32C394.224 153.333 392.784 154.827 391.664 156.8C390.598 158.72 390.064 161.013 390.064 163.68C390.064 166.347 390.598 168.693 391.664 170.72C392.784 172.693 394.224 174.213 395.984 175.28C397.798 176.347 399.718 176.88 401.744 176.88C403.824 176.88 405.771 176.373 407.584 175.36C409.398 174.293 410.838 172.8 411.904 170.88C412.971 168.907 413.504 166.56 413.504 163.84ZM448.923 148.56C450.363 146.213 452.23 144.373 454.523 143.04C456.87 141.707 459.536 141.04 462.523 141.04V152.8H459.563C456.043 152.8 453.376 153.627 451.563 155.28C449.803 156.933 448.923 159.813 448.923 163.92V186H437.723V141.68H448.923V148.56ZM514.467 141.68L487.027 206.96H475.107L484.707 184.88L466.947 141.68H479.507L490.947 172.64L502.547 141.68H514.467ZM545.807 173.36C550.927 169.093 555.007 165.547 558.047 162.72C561.087 159.84 563.62 156.853 565.647 153.76C567.674 150.667 568.687 147.627 568.687 144.64C568.687 141.92 568.047 139.787 566.767 138.24C565.487 136.693 563.514 135.92 560.847 135.92C558.18 135.92 556.127 136.827 554.687 138.64C553.247 140.4 552.5 142.827 552.447 145.92H541.567C541.78 139.52 543.674 134.667 547.247 131.36C550.874 128.053 555.46 126.4 561.007 126.4C567.087 126.4 571.754 128.027 575.007 131.28C578.26 134.48 579.887 138.72 579.887 144C579.887 148.16 578.767 152.133 576.527 155.92C574.287 159.707 571.727 163.013 568.847 165.84C565.967 168.613 562.207 171.973 557.567 175.92H581.167V185.2H541.647V176.88L545.807 173.36ZM590.224 156.08C590.224 146.853 591.878 139.627 595.184 134.4C598.544 129.173 604.091 126.56 611.824 126.56C619.558 126.56 625.078 129.173 628.384 134.4C631.744 139.627 633.424 146.853 633.424 156.08C633.424 165.36 631.744 172.64 628.384 177.92C625.078 183.2 619.558 185.84 611.824 185.84C604.091 185.84 598.544 183.2 595.184 177.92C591.878 172.64 590.224 165.36 590.224 156.08ZM622.384 156.08C622.384 152.133 622.118 148.827 621.584 146.16C621.104 143.44 620.091 141.227 618.544 139.52C617.051 137.813 614.811 136.96 611.824 136.96C608.838 136.96 606.571 137.813 605.024 139.52C603.531 141.227 602.518 143.44 601.984 146.16C601.504 148.827 601.264 152.133 601.264 156.08C601.264 160.133 601.504 163.547 601.984 166.32C602.464 169.04 603.478 171.253 605.024 172.96C606.571 174.613 608.838 175.44 611.824 175.44C614.811 175.44 617.078 174.613 618.624 172.96C620.171 171.253 621.184 169.04 621.664 166.32C622.144 163.547 622.384 160.133 622.384 156.08ZM658.263 150.88V172.32C658.263 173.813 658.61 174.907 659.303 175.6C660.05 176.24 661.276 176.56 662.983 176.56H668.183V186H661.143C651.703 186 646.983 181.413 646.983 172.24V150.88H641.703V141.68H646.983V130.72H658.263V141.68H668.183V150.88H658.263ZM703.199 141.04C706.559 141.04 709.545 141.787 712.159 143.28C714.772 144.72 716.799 146.88 718.239 149.76C719.732 152.587 720.479 156 720.479 160V186H709.279V161.52C709.279 158 708.399 155.307 706.639 153.44C704.879 151.52 702.479 150.56 699.439 150.56C696.345 150.56 693.892 151.52 692.079 153.44C690.319 155.307 689.439 158 689.439 161.52V186H678.239V126.8H689.439V147.2C690.879 145.28 692.799 143.787 695.199 142.72C697.599 141.6 700.265 141.04 703.199 141.04ZM10.7756 278.36C15.8956 274.093 19.9756 270.547 23.0156 267.72C26.0556 264.84 28.589 261.853 30.6156 258.76C32.6423 255.667 33.6556 252.627 33.6556 249.64C33.6556 246.92 33.0156 244.787 31.7356 243.24C30.4556 241.693 28.4823 240.92 25.8156 240.92C23.149 240.92 21.0956 241.827 19.6556 243.64C18.2156 245.4 17.469 247.827 17.4156 250.92H6.53563C6.74896 244.52 8.64229 239.667 12.2156 236.36C15.8423 233.053 20.429 231.4 25.9756 231.4C32.0556 231.4 36.7223 233.027 39.9756 236.28C43.229 239.48 44.8556 243.72 44.8556 249C44.8556 253.16 43.7356 257.133 41.4956 260.92C39.2556 264.707 36.6956 268.013 33.8156 270.84C30.9356 273.613 27.1756 276.973 22.5356 280.92H46.1356V290.2H6.61563V281.88L10.7756 278.36ZM55.1931 261.08C55.1931 251.853 56.8465 244.627 60.1531 239.4C63.5131 234.173 69.0598 231.56 76.7931 231.56C84.5265 231.56 90.0465 234.173 93.3531 239.4C96.7131 244.627 98.3931 251.853 98.3931 261.08C98.3931 270.36 96.7131 277.64 93.3531 282.92C90.0465 288.2 84.5265 290.84 76.7931 290.84C69.0598 290.84 63.5131 288.2 60.1531 282.92C56.8465 277.64 55.1931 270.36 55.1931 261.08ZM87.3531 261.08C87.3531 257.133 87.0865 253.827 86.5531 251.16C86.0731 248.44 85.0598 246.227 83.5131 244.52C82.0198 242.813 79.7798 241.96 76.7931 241.96C73.8065 241.96 71.5398 242.813 69.9931 244.52C68.4998 246.227 67.4865 248.44 66.9531 251.16C66.4731 253.827 66.2331 257.133 66.2331 261.08C66.2331 265.133 66.4731 268.547 66.9531 271.32C67.4331 274.04 68.4465 276.253 69.9931 277.96C71.5398 279.613 73.8065 280.44 76.7931 280.44C79.7798 280.44 82.0465 279.613 83.5931 277.96C85.1398 276.253 86.1531 274.04 86.6331 271.32C87.1131 268.547 87.3531 265.133 87.3531 261.08ZM112.432 278.36C117.552 274.093 121.632 270.547 124.672 267.72C127.712 264.84 130.245 261.853 132.272 258.76C134.299 255.667 135.312 252.627 135.312 249.64C135.312 246.92 134.672 244.787 133.392 243.24C132.112 241.693 130.139 240.92 127.472 240.92C124.805 240.92 122.752 241.827 121.312 243.64C119.872 245.4 119.125 247.827 119.072 250.92H108.192C108.405 244.52 110.299 239.667 113.872 236.36C117.499 233.053 122.085 231.4 127.632 231.4C133.712 231.4 138.379 233.027 141.632 236.28C144.885 239.48 146.512 243.72 146.512 249C146.512 253.16 145.392 257.133 143.152 260.92C140.912 264.707 138.352 268.013 135.472 270.84C132.592 273.613 128.832 276.973 124.192 280.92H147.792V290.2H108.272V281.88L112.432 278.36ZM160.369 278.36C165.489 274.093 169.569 270.547 172.609 267.72C175.649 264.84 178.183 261.853 180.209 258.76C182.236 255.667 183.249 252.627 183.249 249.64C183.249 246.92 182.609 244.787 181.329 243.24C180.049 241.693 178.076 240.92 175.409 240.92C172.743 240.92 170.689 241.827 169.249 243.64C167.809 245.4 167.063 247.827 167.009 250.92H156.129C156.343 244.52 158.236 239.667 161.809 236.36C165.436 233.053 170.023 231.4 175.569 231.4C181.649 231.4 186.316 233.027 189.569 236.28C192.823 239.48 194.449 243.72 194.449 249C194.449 253.16 193.329 257.133 191.089 260.92C188.849 264.707 186.289 268.013 183.409 270.84C180.529 273.613 176.769 276.973 172.129 280.92H195.729V290.2H156.209V281.88L160.369 278.36ZM224.249 268.68C224.249 264.2 225.129 260.227 226.889 256.76C228.703 253.293 231.129 250.627 234.169 248.76C237.263 246.893 240.703 245.96 244.489 245.96C247.796 245.96 250.676 246.627 253.129 247.96C255.636 249.293 257.636 250.973 259.129 253V246.68H270.409V291H259.129V284.52C257.689 286.6 255.689 288.333 253.129 289.72C250.623 291.053 247.716 291.72 244.409 291.72C240.676 291.72 237.263 290.76 234.169 288.84C231.129 286.92 228.703 284.227 226.889 280.76C225.129 277.24 224.249 273.213 224.249 268.68ZM259.129 268.84C259.129 266.12 258.596 263.8 257.529 261.88C256.463 259.907 255.023 258.413 253.209 257.4C251.396 256.333 249.449 255.8 247.369 255.8C245.289 255.8 243.369 256.307 241.609 257.32C239.849 258.333 238.409 259.827 237.289 261.8C236.223 263.72 235.689 266.013 235.689 268.68C235.689 271.347 236.223 273.693 237.289 275.72C238.409 277.693 239.849 279.213 241.609 280.28C243.423 281.347 245.343 281.88 247.369 281.88C249.449 281.88 251.396 281.373 253.209 280.36C255.023 279.293 256.463 277.8 257.529 275.88C258.596 273.907 259.129 271.56 259.129 268.84ZM296.388 255.88V277.32C296.388 278.813 296.735 279.907 297.428 280.6C298.175 281.24 299.401 281.56 301.108 281.56H306.308V291H299.268C289.828 291 285.108 286.413 285.108 277.24V255.88H279.828V246.68H285.108V235.72H296.388V246.68H306.308V255.88H296.388ZM336.146 261.08C336.146 251.853 337.8 244.627 341.106 239.4C344.466 234.173 350.013 231.56 357.746 231.56C365.48 231.56 371 234.173 374.306 239.4C377.666 244.627 379.346 251.853 379.346 261.08C379.346 270.36 377.666 277.64 374.306 282.92C371 288.2 365.48 290.84 357.746 290.84C350.013 290.84 344.466 288.2 341.106 282.92C337.8 277.64 336.146 270.36 336.146 261.08ZM368.306 261.08C368.306 257.133 368.04 253.827 367.506 251.16C367.026 248.44 366.013 246.227 364.466 244.52C362.973 242.813 360.733 241.96 357.746 241.96C354.76 241.96 352.493 242.813 350.946 244.52C349.453 246.227 348.44 248.44 347.906 251.16C347.426 253.827 347.186 257.133 347.186 261.08C347.186 265.133 347.426 268.547 347.906 271.32C348.386 274.04 349.4 276.253 350.946 277.96C352.493 279.613 354.76 280.44 357.746 280.44C360.733 280.44 363 279.613 364.546 277.96C366.093 276.253 367.106 274.04 367.586 271.32C368.066 268.547 368.306 265.133 368.306 261.08ZM429.065 242.36H403.145V256.04C404.265 254.653 405.865 253.533 407.945 252.68C410.025 251.773 412.238 251.32 414.585 251.32C418.852 251.32 422.345 252.253 425.065 254.12C427.785 255.987 429.758 258.387 430.985 261.32C432.212 264.2 432.825 267.293 432.825 270.6C432.825 276.733 431.065 281.667 427.545 285.4C424.078 289.133 419.118 291 412.665 291C406.585 291 401.732 289.48 398.105 286.44C394.478 283.4 392.425 279.427 391.945 274.52H402.825C403.305 276.653 404.372 278.36 406.025 279.64C407.732 280.92 409.892 281.56 412.505 281.56C415.652 281.56 418.025 280.573 419.625 278.6C421.225 276.627 422.025 274.013 422.025 270.76C422.025 267.453 421.198 264.947 419.545 263.24C417.945 261.48 415.572 260.6 412.425 260.6C410.185 260.6 408.318 261.16 406.825 262.28C405.332 263.4 404.265 264.893 403.625 266.76H392.905V232.52H429.065V242.36ZM449.589 291.56C447.563 291.56 445.883 290.947 444.549 289.72C443.269 288.44 442.629 286.867 442.629 285C442.629 283.133 443.269 281.587 444.549 280.36C445.883 279.08 447.563 278.44 449.589 278.44C451.563 278.44 453.189 279.08 454.469 280.36C455.749 281.587 456.389 283.133 456.389 285C456.389 286.867 455.749 288.44 454.469 289.72C453.189 290.947 451.563 291.56 449.589 291.56ZM449.589 258.44C447.563 258.44 445.883 257.827 444.549 256.6C443.269 255.32 442.629 253.747 442.629 251.88C442.629 250.013 443.269 248.467 444.549 247.24C445.883 245.96 447.563 245.32 449.589 245.32C451.563 245.32 453.189 245.96 454.469 247.24C455.749 248.467 456.389 250.013 456.389 251.88C456.389 253.747 455.749 255.32 454.469 256.6C453.189 257.827 451.563 258.44 449.589 258.44ZM466.365 261.08C466.365 251.853 468.018 244.627 471.325 239.4C474.685 234.173 480.232 231.56 487.965 231.56C495.698 231.56 501.218 234.173 504.525 239.4C507.885 244.627 509.565 251.853 509.565 261.08C509.565 270.36 507.885 277.64 504.525 282.92C501.218 288.2 495.698 290.84 487.965 290.84C480.232 290.84 474.685 288.2 471.325 282.92C468.018 277.64 466.365 270.36 466.365 261.08ZM498.525 261.08C498.525 257.133 498.258 253.827 497.725 251.16C497.245 248.44 496.232 246.227 494.685 244.52C493.192 242.813 490.952 241.96 487.965 241.96C484.978 241.96 482.712 242.813 481.165 244.52C479.672 246.227 478.658 248.44 478.125 251.16C477.645 253.827 477.405 257.133 477.405 261.08C477.405 265.133 477.645 268.547 478.125 271.32C478.605 274.04 479.618 276.253 481.165 277.96C482.712 279.613 484.978 280.44 487.965 280.44C490.952 280.44 493.218 279.613 494.765 277.96C496.312 276.253 497.325 274.04 497.805 271.32C498.285 268.547 498.525 265.133 498.525 261.08ZM520.084 261.08C520.084 251.853 521.737 244.627 525.044 239.4C528.404 234.173 533.95 231.56 541.684 231.56C549.417 231.56 554.937 234.173 558.244 239.4C561.604 244.627 563.284 251.853 563.284 261.08C563.284 270.36 561.604 277.64 558.244 282.92C554.937 288.2 549.417 290.84 541.684 290.84C533.95 290.84 528.404 288.2 525.044 282.92C521.737 277.64 520.084 270.36 520.084 261.08ZM552.244 261.08C552.244 257.133 551.977 253.827 551.444 251.16C550.964 248.44 549.95 246.227 548.404 244.52C546.91 242.813 544.67 241.96 541.684 241.96C538.697 241.96 536.43 242.813 534.884 244.52C533.39 246.227 532.377 248.44 531.844 251.16C531.364 253.827 531.124 257.133 531.124 261.08C531.124 265.133 531.364 268.547 531.844 271.32C532.324 274.04 533.337 276.253 534.884 277.96C536.43 279.613 538.697 280.44 541.684 280.44C544.67 280.44 546.937 279.613 548.484 277.96C550.03 276.253 551.044 274.04 551.524 271.32C552.004 268.547 552.244 265.133 552.244 261.08ZM607.185 235.16V269.72C607.185 273.507 608.172 276.413 610.145 278.44C612.118 280.413 614.892 281.4 618.465 281.4C622.092 281.4 624.892 280.413 626.865 278.44C628.838 276.413 629.825 273.507 629.825 269.72V235.16H641.105V269.64C641.105 274.387 640.065 278.413 637.985 281.72C635.958 284.973 633.212 287.427 629.745 289.08C626.332 290.733 622.518 291.56 618.305 291.56C614.145 291.56 610.358 290.733 606.945 289.08C603.585 287.427 600.918 284.973 598.945 281.72C596.972 278.413 595.985 274.387 595.985 269.64V235.16H607.185ZM691.926 235.16V244.2H677.046V291H665.846V244.2H650.966V235.16H691.926ZM699.378 263C699.378 257.507 700.605 252.6 703.058 248.28C705.565 243.907 708.951 240.52 713.218 238.12C717.538 235.667 722.365 234.44 727.698 234.44C733.938 234.44 739.405 236.04 744.098 239.24C748.791 242.44 752.071 246.867 753.938 252.52H741.058C739.778 249.853 737.965 247.853 735.618 246.52C733.325 245.187 730.658 244.52 727.618 244.52C724.365 244.52 721.458 245.293 718.898 246.84C716.391 248.333 714.418 250.467 712.978 253.24C711.591 256.013 710.898 259.267 710.898 263C710.898 266.68 711.591 269.933 712.978 272.76C714.418 275.533 716.391 277.693 718.898 279.24C721.458 280.733 724.365 281.48 727.618 281.48C730.658 281.48 733.325 280.813 735.618 279.48C737.965 278.093 739.778 276.067 741.058 273.4H753.938C752.071 279.107 748.791 283.56 744.098 286.76C739.458 289.907 733.991 291.48 727.698 291.48C722.365 291.48 717.538 290.28 713.218 287.88C708.951 285.427 705.565 282.04 703.058 277.72C700.605 273.4 699.378 268.493 699.378 263Z" fill="white"/>
</svg>
